<?xml version="1.0" encoding="UTF-8" standalone="no"?>
<!-- Created with Inkscape (http://www.inkscape.org/) -->

<svg
   width="47.991665"
   height="10.49691"
   viewBox="0 0 12.697795 2.7773075"
   version="1.1"
   id="svg1"
   xml:space="preserve"
   inkscape:version="1.3.2 (091e20e, 2023-11-25, custom)"
   sodipodi:docname="STLLR LOGO.svg"
   inkscape:export-filename="STLLR-LOGO-transparent_bg.svg"
   inkscape:export-xdpi="96"
   inkscape:export-ydpi="96"
   xmlns:inkscape="http://www.inkscape.org/namespaces/inkscape"
   xmlns:sodipodi="http://sodipodi.sourceforge.net/DTD/sodipodi-0.dtd"
   xmlns="http://www.w3.org/2000/svg"
   xmlns:svg="http://www.w3.org/2000/svg"><sodipodi:namedview
     id="namedview1"
     pagecolor="#ffffff"
     bordercolor="#000000"
     borderopacity="0"
     inkscape:showpageshadow="2"
     inkscape:pageopacity="0.0"
     inkscape:pagecheckerboard="true"
     inkscape:deskcolor="#d1d1d1"
     inkscape:document-units="mm"
     showgrid="true"
     inkscape:zoom="8"
     inkscape:cx="2.0625"
     inkscape:cy="30.9375"
     inkscape:window-width="2560"
     inkscape:window-height="991"
     inkscape:window-x="-9"
     inkscape:window-y="-9"
     inkscape:window-maximized="1"
     inkscape:current-layer="layer2"
     labelstyle="default"
     showborder="true"
     inkscape:export-bgcolor="#ffffff00"><inkscape:grid
       id="grid2"
       units="mm"
       originx="-0.002545039"
       originy="-4.6310149"
       spacingx="1"
       spacingy="1"
       empcolor="#0099e5"
       empopacity="0.30196078"
       color="#0099e5"
       opacity="0.14901961"
       empspacing="5"
       dotted="false"
       gridanglex="30"
       gridanglez="30"
       visible="true" /></sodipodi:namedview><defs
     id="defs1" /><g
     inkscape:label="Voorgrond"
     inkscape:groupmode="layer"
     id="layer1"
     transform="translate(-0.00254504,-4.6310148)"><text
       xml:space="preserve"
       style="font-size:2.4602px;fill:#ffffff;fill-opacity:1;stroke-width:0.307524"
       x="-0.095668025"
       y="6.47788"
       id="text1"
       transform="scale(0.92885398,1.0765955)"><tspan
         sodipodi:role="line"
         id="tspan1"
         style="font-style:normal;font-variant:normal;font-weight:normal;font-stretch:normal;font-size:2.4602px;font-family:'Dela Gothic One';-inkscape-font-specification:'Dela Gothic One';fill:#ffffff;fill-opacity:1;stroke-width:0.307524"
         x="-0.095668025"
         y="6.47788">STLL</tspan></text><text
       xml:space="preserve"
       style="font-size:2.57262px;fill:#ffffff;fill-opacity:1;stroke-width:0.321576"
       x="11.372995"
       y="6.554389"
       id="text2"
       transform="scale(0.93786801,1.0662481)"><tspan
         sodipodi:role="line"
         id="tspan2"
         style="font-style:normal;font-variant:normal;font-weight:normal;font-stretch:normal;font-size:2.57262px;font-family:'Dela Gothic One';-inkscape-font-specification:'Dela Gothic One';fill:#ffffff;fill-opacity:1;stroke-width:0.321576"
         x="11.372995"
         y="6.554389">R</tspan></text><path
       sodipodi:type="star"
       style="fill:#ffffff;fill-opacity:1;stroke-width:0.264583"
       id="path3"
       inkscape:flatsided="false"
       sodipodi:sides="11"
       sodipodi:cx="5.5424709"
       sodipodi:cy="1.5528475"
       sodipodi:r1="1.607145"
       sodipodi:r2="2.2321458"
       sodipodi:arg1="0.73997488"
       sodipodi:arg2="1.0255742"
       inkscape:rounded="0.11"
       inkscape:randomized="0"
       d="M 6.7293242,2.6364961 C 6.6681059,2.7035446 6.7777079,3.4142738 6.7000796,3.4613592 6.6224514,3.5084446 6.0428,3.0828243 5.9550507,3.106132 5.8673015,3.1294398 5.5752554,3.7865984 5.484494,3.7842402 5.3937327,3.781882 5.1362066,3.1104442 5.0497861,3.0826111 4.9633657,3.054778 4.362394,3.449723 4.2873157,3.3986698 4.2122373,3.3476167 4.3585993,2.6435381 4.3009455,2.573401 4.2432917,2.5032639 3.5241988,2.5106029 3.4886402,2.4270639 3.4530817,2.3435249 3.9568629,1.8303455 3.9462804,1.7401724 3.9356979,1.6499993 3.3267907,1.2674023 3.3420415,1.1779004 3.3572924,1.0883985 4.0585458,0.92904926 4.0983945,0.84746948 4.1382432,0.76588972 3.8328454,0.11482855 3.8940636,0.04778001 c 0.061218,-0.06704854 0.7373009,0.17802451 0.8149291,0.13093908 0.077628,-0.0470854 0.1727015,-0.75990346 0.2604507,-0.78321121 0.087749,-0.0233077 0.5240096,0.54837868 0.6147709,0.55073688 0.090761,0.0023582 0.5561206,-0.54590201 0.642541,-0.51806892 0.086421,0.0278331 0.1443491,0.74462649 0.2194274,0.79567961 0.075078,0.0510531 0.7629753,-0.15858052 0.8206291,-0.0884434 0.057654,0.0701371 -0.2811413,0.70446065 -0.2455828,0.78799968 0.035559,0.0835391 0.7275908,0.27908918 0.7381733,0.36926228 0.010582,0.090173 -0.6173713,0.4406335 -0.6326222,0.5301354 -0.015251,0.089502 0.4612013,0.62815 0.4213526,0.7097298 -0.039849,0.08158 -0.7575903,0.036908 -0.8188085,0.1039569 z"
       transform="matrix(0.63272588,0,0,0.63272588,5.5670177,5.0139315)" /></g></svg>
